<svg width="114" height="53" viewBox="0 0 114 53" fill="none" xmlns="http://www.w3.org/2000/svg">
<path d="M96.5139 21.2098C95.9389 21.2098 95.4502 20.7265 95.4502 20.1579V7.22158C95.4502 6.65295 95.9102 6.16962 96.5139 6.16962C97.0889 6.16962 97.5777 6.62452 97.5777 7.22158V20.1579C97.5777 20.7265 97.0889 21.2098 96.5139 21.2098Z" fill="#AFB2BF"/>
<path d="M60.3176 18.2245C59.8864 17.8833 59.2826 17.9402 58.9089 18.3666C57.9601 19.5323 55.6026 19.248 54.9989 18.9921C54.1076 18.651 53.6764 17.9117 53.6764 16.8314V9.75194H58.3626C58.9376 9.75194 59.4264 9.29704 59.4264 8.69998C59.4264 8.13135 58.9664 7.64802 58.3626 7.64802H53.6764V2.35978C53.6764 1.81959 53.2451 1.36469 52.6701 1.36469C52.1239 1.36469 51.6926 1.79116 51.6926 2.35978V16.8314C51.6926 18.7078 52.6126 20.1578 54.2514 20.8117C54.7689 21.0108 55.5739 21.1813 56.4651 21.1813C57.8739 21.1813 59.4839 20.7833 60.4614 19.5892C60.8064 19.1627 60.7489 18.5657 60.3176 18.2245Z" fill="#AFB2BF"/>
<path d="M44.0451 21.2667C43.7289 21.2667 43.3839 21.2382 43.0676 21.2098C39.6176 20.7833 37.5476 19.1912 37.5476 17.002C37.5476 16.4333 38.0076 15.95 38.6114 15.95C39.1864 15.95 39.6751 16.4333 39.6751 17.002C39.6751 18.0255 41.1126 18.85 43.3551 19.1343C45.5976 19.4186 47.1789 18.3098 47.4089 17.4569C47.5526 16.9451 47.4951 16.4902 47.2651 16.1206C47.0064 15.7226 46.5751 15.4667 45.9139 15.3245C41.4001 14.5284 38.4101 13.7892 37.9789 10.9745C37.8351 9.95099 38.1226 8.92746 38.8126 8.13139C39.7901 6.99413 41.4864 6.34021 43.4701 6.34021C47.0926 6.34021 49.4501 7.93237 49.4501 10.4343C49.4501 11.003 48.9614 11.4863 48.3864 11.4863C47.8114 11.4863 47.3226 11.003 47.3226 10.4343C47.3226 8.9559 45.2526 8.44413 43.4701 8.44413C42.1476 8.44413 40.9976 8.84217 40.4226 9.49609C40.1351 9.83727 39.9914 10.2353 40.0776 10.6618C40.2501 11.7137 41.1989 12.3677 46.3164 13.249H46.3451C47.8976 13.5618 48.7026 14.3863 49.0764 14.9833C49.6226 15.8363 49.7664 16.8882 49.4789 17.9686C48.9614 19.703 46.8914 21.2667 44.0451 21.2667Z" fill="#AFB2BF"/>
<path d="M68.425 21.2667C64.2563 21.2667 60.8638 17.9118 60.8638 13.8177C60.8638 9.69512 64.2563 6.36865 68.425 6.36865C72.22 6.36865 75.4688 9.18336 75.9288 12.9079C75.9863 13.3912 75.7275 13.7892 75.555 13.9883C75.2963 14.2726 74.9513 14.4432 74.6063 14.4432H63.02C63.3075 17.1157 65.6363 19.2196 68.425 19.2196C70.2938 19.2196 72.1913 18.253 72.9963 16.9167C73.2838 16.4049 73.945 16.2628 74.4338 16.5471C74.9225 16.8314 75.1238 17.4853 74.8075 17.9687C73.6575 19.902 71.07 21.2667 68.425 21.2667ZM63.1925 12.3108H73.6575C72.9963 10.0647 70.8688 8.44414 68.425 8.44414C65.9525 8.44414 63.8538 10.0647 63.1925 12.3108Z" fill="#AFB2BF"/>
<path d="M85.4738 6.3402C83.3463 6.3402 81.4201 7.22157 80.0401 8.61471V7.36373C80.0401 6.7951 79.5513 6.31177 78.9763 6.31177C78.4013 6.31177 77.9126 6.76667 77.9126 7.36373V25.3039C77.9126 25.8726 78.3726 26.3559 78.9763 26.3559C79.5513 26.3559 80.0401 25.8726 80.0401 25.3039V18.9637C81.4201 20.3853 83.3463 21.2382 85.4738 21.2382C89.6426 21.2382 93.0063 17.8833 93.0063 13.7892C93.0063 9.6951 89.6426 6.3402 85.4738 6.3402ZM85.4738 19.1627C82.4838 19.1627 80.0401 16.7461 80.0401 13.7892C80.0401 10.8324 82.4838 8.41569 85.4738 8.41569C88.4638 8.41569 90.9076 10.8324 90.9076 13.7892C90.9076 16.7461 88.4638 19.1627 85.4738 19.1627Z" fill="#AFB2BF"/>
<path d="M111.607 21.153C110.572 21.153 109.537 20.6981 108.589 19.8167C107.87 19.1343 103.27 14.5569 103.098 14.3579C102.896 14.1588 102.781 13.903 102.781 13.6186C102.781 13.3343 102.896 13.0785 103.098 12.8794L109.423 6.76669C109.854 6.36865 110.515 6.36865 110.917 6.79512C111.32 7.19316 111.32 7.87551 110.889 8.27355L105.34 13.6186C106.691 14.9834 109.509 17.7696 110.026 18.2814C110.601 18.8216 111.147 19.0775 111.665 19.049C111.809 19.049 112.154 19.049 112.441 19.049C113.016 19.049 113.505 19.5324 113.505 20.101C113.505 20.6696 113.016 21.1245 112.441 21.153C112.154 21.153 111.866 21.153 111.723 21.153C111.694 21.153 111.636 21.153 111.607 21.153Z" fill="#AFB2BF"/>
<path d="M101.373 21.1814C100.798 21.1814 100.309 20.7265 100.309 20.1294V2.33138C100.309 1.76275 100.798 1.27942 101.373 1.27942C101.948 1.27942 102.436 1.73432 102.436 2.33138V20.1294C102.436 20.7265 101.948 21.1814 101.373 21.1814Z" fill="#AFB2BF"/>
<path d="M96.5427 4.03723C97.2902 4.03723 97.8939 3.44018 97.8939 2.70096C97.8939 1.96174 97.2902 1.36469 96.5427 1.36469C95.7952 1.36469 95.1914 1.96174 95.1914 2.70096C95.1914 3.44018 95.7952 4.03723 96.5427 4.03723Z" fill="#AFB2BF"/>
<path d="M25.9325 7.47745L21.2175 2.78627C19.3775 0.995098 16.9625 0 14.375 0C11.7875 0 9.3725 0.995098 7.56125 2.78627L2.84625 7.47745C1.00625 9.26863 0 11.6569 0 14.2157C0 16.7745 1.00625 19.1627 2.8175 20.9539L7.5325 25.6167C9.34375 27.4078 11.7875 28.4029 14.3463 28.4029C16.8475 28.4029 19.2338 27.4647 21.045 25.7304L25.875 20.9539C27.6863 19.1627 28.6925 16.7461 28.6925 14.2157C28.75 11.6569 27.7725 9.26863 25.9325 7.47745Z" fill="#AFB2BF"/>
<path d="M17.8537 22.4324C16.9625 23.2853 15.7262 23.8255 14.4037 23.8255C13.0237 23.8255 11.7875 23.2853 10.8675 22.3755L13.1962 20.0726C13.5125 20.3853 13.915 20.5559 14.4037 20.5559C14.8637 20.5559 15.295 20.3569 15.6112 20.0726L20.3262 15.4098C20.6425 15.0971 20.815 14.699 20.815 14.2157C20.815 13.7608 20.6137 13.3343 20.3262 13.0216C20.01 12.7088 19.6075 12.5382 19.1187 12.5382C18.63 12.5382 18.2275 12.7373 17.9112 13.0216L13.1962 17.7128C12.305 18.5941 11.04 19.1628 9.65997 19.1628C8.27997 19.1628 7.04372 18.5941 6.12372 17.7128C5.23247 16.8314 4.65747 15.5804 4.65747 14.2157C4.65747 12.851 5.20372 11.6284 6.12372 10.7186L10.8387 6.0559C11.73 5.17452 12.995 4.6059 14.375 4.6059C15.755 4.6059 16.9912 5.14609 17.9112 6.0559L15.5825 8.35884C15.2662 8.04609 14.8637 7.8755 14.375 7.8755C13.8862 7.8755 13.4837 8.07452 13.1675 8.35884L8.45247 13.0216C8.13622 13.3343 7.96372 13.7324 7.96372 14.2157C7.96372 14.6706 8.16497 15.0971 8.45247 15.4098C8.76872 15.7226 9.17122 15.8932 9.65997 15.8932C10.12 15.8932 10.5512 15.6941 10.8675 15.4098L15.5825 10.7471C16.4737 9.8657 17.7387 9.29707 19.1187 9.29707C20.4987 9.29707 21.735 9.83727 22.655 10.7471C23.5462 11.6284 24.1212 12.8794 24.1212 14.2441C24.1212 15.6088 23.575 16.8314 22.655 17.7412L17.8537 22.4324Z" fill="#1E1F29"/>
<g clip-path="url(#clip0_206_1848)">
<path d="M6.10203 40.0085C6.94646 38.4937 7.36868 37.7363 7.99992 37.7363C8.63116 37.7363 9.05338 38.4937 9.89781 40.0085L10.1163 40.4004C10.3562 40.8309 10.4762 41.0461 10.6633 41.1881C10.8504 41.3302 11.0834 41.3829 11.5493 41.4883L11.9736 41.5843C13.6133 41.9553 14.4332 42.1408 14.6283 42.7681C14.8234 43.3954 14.2644 44.049 13.1465 45.3562L12.8573 45.6944C12.5396 46.0659 12.3808 46.2516 12.3093 46.4814C12.2379 46.7112 12.2619 46.959 12.3099 47.4546L12.3537 47.9059C12.5227 49.65 12.6072 50.5221 12.0965 50.9097C11.5858 51.2974 10.8181 50.944 9.2828 50.237L8.8856 50.0542C8.4493 49.8533 8.23115 49.7528 7.99992 49.7528C7.76868 49.7528 7.55054 49.8533 7.11424 50.0542L6.71703 50.237C5.1817 50.944 4.41404 51.2974 3.90335 50.9097C3.39267 50.5221 3.47717 49.65 3.64618 47.9059L3.68991 47.4546C3.73794 46.959 3.76195 46.7112 3.69049 46.4814C3.61904 46.2516 3.4602 46.0659 3.14253 45.6944L2.85332 45.3562C1.73542 44.049 1.17647 43.3954 1.37153 42.7681C1.5666 42.1408 2.38649 41.9553 4.02628 41.5843L4.45051 41.4883C4.91649 41.3829 5.14947 41.3302 5.33655 41.1881C5.52362 41.0461 5.6436 40.8309 5.88356 40.4004L6.10203 40.0085Z" fill="#FDF41A" stroke="#FDF41A" stroke-width="1.5"/>
</g>
<g clip-path="url(#clip1_206_1848)">
<path d="M30.102 40.0085C30.9465 38.4937 31.3687 37.7363 31.9999 37.7363C32.6312 37.7363 33.0534 38.4937 33.8978 40.0085L34.1163 40.4004C34.3562 40.8309 34.4762 41.0461 34.6633 41.1881C34.8504 41.3302 35.0834 41.3829 35.5493 41.4883L35.9736 41.5843C37.6133 41.9553 38.4332 42.1408 38.6283 42.7681C38.8234 43.3954 38.2644 44.049 37.1465 45.3562L36.8573 45.6944C36.5396 46.0659 36.3808 46.2516 36.3093 46.4814C36.2379 46.7112 36.2619 46.959 36.3099 47.4546L36.3537 47.9059C36.5227 49.65 36.6072 50.5221 36.0965 50.9097C35.5858 51.2974 34.8181 50.944 33.2828 50.237L32.8856 50.0542C32.4493 49.8533 32.2312 49.7528 31.9999 49.7528C31.7687 49.7528 31.5505 49.8533 31.1142 50.0542L30.717 50.237C29.1817 50.944 28.414 51.2974 27.9034 50.9097C27.3927 50.5221 27.4772 49.65 27.6462 47.9059L27.6899 47.4546C27.7379 46.959 27.7619 46.7112 27.6905 46.4814C27.619 46.2516 27.4602 46.0659 27.1425 45.6944L26.8533 45.3562C25.7354 44.049 25.1765 43.3954 25.3715 42.7681C25.5666 42.1408 26.3865 41.9553 28.0263 41.5843L28.4505 41.4883C28.9165 41.3829 29.1495 41.3302 29.3365 41.1881C29.5236 41.0461 29.6436 40.8309 29.8836 40.4004L30.102 40.0085Z" fill="#FDF41A" stroke="#FDF41A" stroke-width="1.5"/>
</g>
<g clip-path="url(#clip2_206_1848)">
<path d="M54.102 40.0085C54.9465 38.4937 55.3687 37.7363 55.9999 37.7363C56.6312 37.7363 57.0534 38.4937 57.8978 40.0085L58.1163 40.4004C58.3562 40.8309 58.4762 41.0461 58.6633 41.1881C58.8504 41.3302 59.0834 41.3829 59.5493 41.4883L59.9736 41.5843C61.6133 41.9553 62.4332 42.1408 62.6283 42.7681C62.8234 43.3954 62.2644 44.049 61.1465 45.3562L60.8573 45.6944C60.5396 46.0659 60.3808 46.2516 60.3093 46.4814C60.2379 46.7112 60.2619 46.959 60.3099 47.4546L60.3537 47.9059C60.5227 49.65 60.6072 50.5221 60.0965 50.9097C59.5858 51.2974 58.8181 50.944 57.2828 50.237L56.8856 50.0542C56.4493 49.8533 56.2312 49.7528 55.9999 49.7528C55.7687 49.7528 55.5505 49.8533 55.1142 50.0542L54.717 50.237C53.1817 50.944 52.414 51.2974 51.9034 50.9097C51.3927 50.5221 51.4772 49.65 51.6462 47.9059L51.6899 47.4546C51.7379 46.959 51.7619 46.7112 51.6905 46.4814C51.619 46.2516 51.4602 46.0659 51.1425 45.6944L50.8533 45.3562C49.7354 44.049 49.1765 43.3954 49.3715 42.7681C49.5666 42.1408 50.3865 41.9553 52.0263 41.5843L52.4505 41.4883C52.9165 41.3829 53.1495 41.3302 53.3365 41.1881C53.5236 41.0461 53.6436 40.8309 53.8836 40.4004L54.102 40.0085Z" fill="#FDF41A" stroke="#FDF41A" stroke-width="1.5"/>
</g>
<g clip-path="url(#clip3_206_1848)">
<path d="M78.102 40.0085C78.9465 38.4937 79.3687 37.7363 79.9999 37.7363C80.6312 37.7363 81.0534 38.4937 81.8978 40.0085L82.1163 40.4004C82.3562 40.8309 82.4762 41.0461 82.6633 41.1881C82.8504 41.3302 83.0834 41.3829 83.5493 41.4883L83.9736 41.5843C85.6133 41.9553 86.4332 42.1408 86.6283 42.7681C86.8234 43.3954 86.2644 44.049 85.1465 45.3562L84.8573 45.6944C84.5396 46.0659 84.3808 46.2516 84.3093 46.4814C84.2379 46.7112 84.2619 46.959 84.3099 47.4546L84.3537 47.9059C84.5227 49.65 84.6072 50.5221 84.0965 50.9097C83.5858 51.2974 82.8181 50.944 81.2828 50.237L80.8856 50.0542C80.4493 49.8533 80.2312 49.7528 79.9999 49.7528C79.7687 49.7528 79.5505 49.8533 79.1142 50.0542L78.717 50.237C77.1817 50.944 76.414 51.2974 75.9034 50.9097C75.3927 50.5221 75.4772 49.65 75.6462 47.9059L75.6899 47.4546C75.7379 46.959 75.7619 46.7112 75.6905 46.4814C75.619 46.2516 75.4602 46.0659 75.1425 45.6944L74.8533 45.3562C73.7354 44.049 73.1765 43.3954 73.3715 42.7681C73.5666 42.1408 74.3865 41.9553 76.0263 41.5843L76.4505 41.4883C76.9165 41.3829 77.1495 41.3302 77.3365 41.1881C77.5236 41.0461 77.6436 40.8309 77.8836 40.4004L78.102 40.0085Z" fill="#FDF41A" stroke="#FDF41A" stroke-width="1.5"/>
</g>
<g clip-path="url(#clip4_206_1848)">
<path d="M102.102 40.0085C102.946 38.4937 103.369 37.7363 104 37.7363C104.631 37.7363 105.053 38.4937 105.898 40.0085L106.116 40.4004C106.356 40.8309 106.476 41.0461 106.663 41.1881C106.85 41.3302 107.083 41.3829 107.549 41.4883L107.974 41.5843C109.613 41.9553 110.433 42.1408 110.628 42.7681C110.823 43.3954 110.264 44.049 109.147 45.3562L108.857 45.6944C108.54 46.0659 108.381 46.2516 108.309 46.4814C108.238 46.7112 108.262 46.959 108.31 47.4546L108.354 47.9059C108.523 49.65 108.607 50.5221 108.096 50.9097C107.586 51.2974 106.818 50.944 105.283 50.237L104.886 50.0542C104.449 49.8533 104.231 49.7528 104 49.7528C103.769 49.7528 103.551 49.8533 103.114 50.0542L102.717 50.237C101.182 50.944 100.414 51.2974 99.9034 50.9097C99.3927 50.5221 99.4772 49.65 99.6462 47.9059L99.6899 47.4546C99.7379 46.959 99.7619 46.7112 99.6905 46.4814C99.619 46.2516 99.4602 46.0659 99.1425 45.6944L98.8533 45.3562C97.7354 44.049 97.1765 43.3954 97.3715 42.7681C97.5666 42.1408 98.3865 41.9553 100.026 41.5843L100.451 41.4883C100.916 41.3829 101.149 41.3302 101.337 41.1881C101.524 41.0461 101.644 40.8309 101.884 40.4004L102.102 40.0085Z" fill="#FDF41A" stroke="#FDF41A" stroke-width="1.5"/>
</g>
<defs>
<clipPath id="clip0_206_1848">
<rect y="36.403" width="16" height="16" rx="5" fill="white"/>
</clipPath>
<clipPath id="clip1_206_1848">
<rect x="24" y="36.403" width="16" height="16" rx="5" fill="white"/>
</clipPath>
<clipPath id="clip2_206_1848">
<rect x="48" y="36.403" width="16" height="16" rx="5" fill="white"/>
</clipPath>
<clipPath id="clip3_206_1848">
<rect x="72" y="36.403" width="16" height="16" rx="5" fill="white"/>
</clipPath>
<clipPath id="clip4_206_1848">
<rect x="96" y="36.403" width="16" height="16" rx="5" fill="white"/>
</clipPath>
</defs>
</svg>
