<svg width="182" height="46" viewBox="0 0 182 46" fill="none" xmlns="http://www.w3.org/2000/svg">
<path d="M9.264 18.2C10.752 18.2 12.04 18.448 13.128 18.944C14.232 19.44 15.08 20.144 15.672 21.056C16.264 21.968 16.56 23.048 16.56 24.296C16.56 25.528 16.264 26.608 15.672 27.536C15.08 28.448 14.232 29.152 13.128 29.648C12.04 30.128 10.752 30.368 9.264 30.368H5.88V35H1.992V18.2H9.264ZM9.048 27.2C10.216 27.2 11.104 26.952 11.712 26.456C12.32 25.944 12.624 25.224 12.624 24.296C12.624 23.352 12.32 22.632 11.712 22.136C11.104 21.624 10.216 21.368 9.048 21.368H5.88V27.2H9.048ZM32.3141 22.088V35H28.7621V33.464C28.2661 34.024 27.6741 34.456 26.9861 34.76C26.2981 35.048 25.5541 35.192 24.7541 35.192C23.0581 35.192 21.7141 34.704 20.7221 33.728C19.7301 32.752 19.2341 31.304 19.2341 29.384V22.088H22.9781V28.832C22.9781 30.912 23.8501 31.952 25.5941 31.952C26.4901 31.952 27.2101 31.664 27.7541 31.088C28.2981 30.496 28.5701 29.624 28.5701 28.472V22.088H32.3141ZM39.3587 23.792C39.8067 23.168 40.4067 22.696 41.1587 22.376C41.9267 22.056 42.8067 21.896 43.7987 21.896V25.352C43.3827 25.32 43.1027 25.304 42.9587 25.304C41.8867 25.304 41.0467 25.608 40.4387 26.216C39.8307 26.808 39.5267 27.704 39.5267 28.904V35H35.7827V22.088H39.3587V23.792ZM53.6569 21.896C54.8569 21.896 55.9449 22.176 56.9209 22.736C57.9129 23.28 58.6889 24.056 59.2489 25.064C59.8089 26.056 60.0889 27.216 60.0889 28.544C60.0889 29.872 59.8089 31.04 59.2489 32.048C58.6889 33.04 57.9129 33.816 56.9209 34.376C55.9449 34.92 54.8569 35.192 53.6569 35.192C52.0089 35.192 50.7129 34.672 49.7689 33.632V39.656H46.0249V22.088H49.6009V23.576C50.5289 22.456 51.8809 21.896 53.6569 21.896ZM53.0089 32.12C53.9689 32.12 54.7529 31.8 55.3609 31.16C55.9849 30.504 56.2969 29.632 56.2969 28.544C56.2969 27.456 55.9849 26.592 55.3609 25.952C54.7529 25.296 53.9689 24.968 53.0089 24.968C52.0489 24.968 51.2569 25.296 50.6329 25.952C50.0249 26.592 49.7209 27.456 49.7209 28.544C49.7209 29.632 50.0249 30.504 50.6329 31.16C51.2569 31.8 52.0489 32.12 53.0089 32.12ZM67.2272 35.192C65.7712 35.192 64.6352 34.808 63.8192 34.04C63.0032 33.256 62.5952 32.152 62.5952 30.728V17.192H66.3392V30.512C66.3392 31.056 66.4752 31.48 66.7472 31.784C67.0352 32.072 67.4352 32.216 67.9472 32.216C68.1392 32.216 68.3312 32.192 68.5232 32.144C68.7312 32.096 68.8912 32.04 69.0032 31.976L69.1712 34.88C68.5472 35.088 67.8992 35.192 67.2272 35.192ZM77.2789 32.192C77.9509 32.192 78.5429 32.096 79.0549 31.904C79.5829 31.696 80.0709 31.376 80.5189 30.944L82.5109 33.104C81.2949 34.496 79.5189 35.192 77.1829 35.192C75.7269 35.192 74.4389 34.912 73.3189 34.352C72.1989 33.776 71.3349 32.984 70.7269 31.976C70.1189 30.968 69.8149 29.824 69.8149 28.544C69.8149 27.28 70.1109 26.144 70.7029 25.136C71.3109 24.112 72.1349 23.32 73.1749 22.76C74.2309 22.184 75.4149 21.896 76.7269 21.896C77.9589 21.896 79.0789 22.16 80.0869 22.688C81.0949 23.2 81.8949 23.952 82.4869 24.944C83.0949 25.92 83.3989 27.08 83.3989 28.424L73.8469 30.272C74.1189 30.912 74.5429 31.392 75.1189 31.712C75.7109 32.032 76.4309 32.192 77.2789 32.192ZM76.7269 24.728C75.7829 24.728 75.0149 25.032 74.4229 25.64C73.8309 26.248 73.5189 27.088 73.4869 28.16L79.7749 26.936C79.5989 26.264 79.2389 25.728 78.6949 25.328C78.1509 24.928 77.4949 24.728 76.7269 24.728ZM91.6995 35.288C90.3715 35.288 89.0835 35.112 87.8355 34.76C86.6035 34.392 85.6115 33.92 84.8595 33.344L86.1795 30.416C86.8995 30.944 87.7555 31.368 88.7475 31.688C89.7395 32.008 90.7315 32.168 91.7235 32.168C92.8275 32.168 93.6435 32.008 94.1715 31.688C94.6995 31.352 94.9635 30.912 94.9635 30.368C94.9635 29.968 94.8035 29.64 94.4835 29.384C94.1795 29.112 93.7795 28.896 93.2835 28.736C92.8035 28.576 92.1475 28.4 91.3155 28.208C90.0355 27.904 88.9875 27.6 88.1715 27.296C87.3555 26.992 86.6515 26.504 86.0595 25.832C85.4835 25.16 85.1955 24.264 85.1955 23.144C85.1955 22.168 85.4595 21.288 85.9875 20.504C86.5155 19.704 87.3075 19.072 88.3635 18.608C89.4355 18.144 90.7395 17.912 92.2755 17.912C93.3475 17.912 94.3955 18.04 95.4195 18.296C96.4435 18.552 97.3395 18.92 98.1075 19.4L96.9075 22.352C95.3555 21.472 93.8035 21.032 92.2515 21.032C91.1635 21.032 90.3555 21.208 89.8275 21.56C89.3155 21.912 89.0595 22.376 89.0595 22.952C89.0595 23.528 89.3555 23.96 89.9475 24.248C90.5555 24.52 91.4755 24.792 92.7075 25.064C93.9875 25.368 95.0355 25.672 95.8515 25.976C96.6675 26.28 97.3635 26.76 97.9395 27.416C98.5315 28.072 98.8275 28.96 98.8275 30.08C98.8275 31.04 98.5555 31.92 98.0115 32.72C97.4835 33.504 96.6835 34.128 95.6115 34.592C94.5395 35.056 93.2355 35.288 91.6995 35.288ZM107.46 35.192C106.084 35.192 104.844 34.912 103.74 34.352C102.652 33.776 101.796 32.984 101.172 31.976C100.564 30.968 100.26 29.824 100.26 28.544C100.26 27.264 100.564 26.12 101.172 25.112C101.796 24.104 102.652 23.32 103.74 22.76C104.844 22.184 106.084 21.896 107.46 21.896C108.82 21.896 110.004 22.184 111.012 22.76C112.036 23.32 112.78 24.128 113.244 25.184L110.34 26.744C109.668 25.56 108.7 24.968 107.436 24.968C106.46 24.968 105.652 25.288 105.012 25.928C104.372 26.568 104.052 27.44 104.052 28.544C104.052 29.648 104.372 30.52 105.012 31.16C105.652 31.8 106.46 32.12 107.436 32.12C108.716 32.12 109.684 31.528 110.34 30.344L113.244 31.928C112.78 32.952 112.036 33.752 111.012 34.328C110.004 34.904 108.82 35.192 107.46 35.192ZM123.154 21.896C124.754 21.896 126.042 22.376 127.018 23.336C128.01 24.296 128.506 25.72 128.506 27.608V35H124.762V28.184C124.762 27.16 124.538 26.4 124.09 25.904C123.642 25.392 122.994 25.136 122.146 25.136C121.202 25.136 120.45 25.432 119.89 26.024C119.33 26.6 119.05 27.464 119.05 28.616V35H115.306V17.192H119.05V23.432C119.546 22.936 120.146 22.56 120.85 22.304C121.554 22.032 122.322 21.896 123.154 21.896ZM138.185 35.192C136.825 35.192 135.601 34.912 134.513 34.352C133.441 33.776 132.601 32.984 131.993 31.976C131.385 30.968 131.081 29.824 131.081 28.544C131.081 27.264 131.385 26.12 131.993 25.112C132.601 24.104 133.441 23.32 134.513 22.76C135.601 22.184 136.825 21.896 138.185 21.896C139.545 21.896 140.761 22.184 141.833 22.76C142.905 23.32 143.745 24.104 144.353 25.112C144.961 26.12 145.265 27.264 145.265 28.544C145.265 29.824 144.961 30.968 144.353 31.976C143.745 32.984 142.905 33.776 141.833 34.352C140.761 34.912 139.545 35.192 138.185 35.192ZM138.185 32.12C139.145 32.12 139.929 31.8 140.537 31.16C141.161 30.504 141.473 29.632 141.473 28.544C141.473 27.456 141.161 26.592 140.537 25.952C139.929 25.296 139.145 24.968 138.185 24.968C137.225 24.968 136.433 25.296 135.809 25.952C135.185 26.592 134.873 27.456 134.873 28.544C134.873 29.632 135.185 30.504 135.809 31.16C136.433 31.8 137.225 32.12 138.185 32.12ZM153.911 35.192C152.551 35.192 151.327 34.912 150.239 34.352C149.167 33.776 148.327 32.984 147.719 31.976C147.111 30.968 146.807 29.824 146.807 28.544C146.807 27.264 147.111 26.12 147.719 25.112C148.327 24.104 149.167 23.32 150.239 22.76C151.327 22.184 152.551 21.896 153.911 21.896C155.271 21.896 156.487 22.184 157.559 22.76C158.631 23.32 159.471 24.104 160.079 25.112C160.687 26.12 160.991 27.264 160.991 28.544C160.991 29.824 160.687 30.968 160.079 31.976C159.471 32.984 158.631 33.776 157.559 34.352C156.487 34.912 155.271 35.192 153.911 35.192ZM153.911 32.12C154.871 32.12 155.655 31.8 156.263 31.16C156.887 30.504 157.199 29.632 157.199 28.544C157.199 27.456 156.887 26.592 156.263 25.952C155.655 25.296 154.871 24.968 153.911 24.968C152.951 24.968 152.159 25.296 151.535 25.952C150.911 26.592 150.599 27.456 150.599 28.544C150.599 29.632 150.911 30.504 151.535 31.16C152.159 31.8 152.951 32.12 153.911 32.12ZM168.126 35.192C166.67 35.192 165.534 34.808 164.718 34.04C163.902 33.256 163.494 32.152 163.494 30.728V17.192H167.238V30.512C167.238 31.056 167.374 31.48 167.646 31.784C167.934 32.072 168.334 32.216 168.846 32.216C169.038 32.216 169.23 32.192 169.422 32.144C169.63 32.096 169.79 32.04 169.902 31.976L170.07 34.88C169.446 35.088 168.798 35.192 168.126 35.192Z" fill="#FAFAFA"/>
</svg>
